<svg version="1.2" baseProfile="tiny-ps" xmlns="http://www.w3.org/2000/svg" viewBox="0 0 873 327" width="873" height="327">
	<title>logo-svg</title>
	<defs>
		<clipPath clipPathUnits="userSpaceOnUse" id="cp1">
			<path d="M296.93 42.78L296.93 288.88L50.83 288.88L50.83 42.78L296.93 42.78ZM287.77 51.93L273.08 51.93L287.77 62.03L287.77 51.93ZM287.77 85.74L287.77 73.14L259.48 53.69L206.37 75.31L59.98 75.31L59.98 89.87L204.58 89.87L260.6 67.07L287.77 85.74ZM287.77 109.46L287.77 96.85L259.48 77.41L206.37 99.02L59.98 99.02L59.98 113.58L204.58 113.58L260.6 90.78L287.77 109.46ZM287.77 133.17L287.77 120.56L259.48 101.12L206.37 122.73L59.98 122.73L59.98 137.29L146.43 137.29L159.03 130.49L166.81 137.29L204.58 137.29L260.6 114.49L287.77 133.17ZM287.77 156.88L287.77 144.28L259.48 124.83L206.37 146.45L177.29 146.45L193.97 161.01L204.58 161.01L260.6 138.21L287.77 156.88ZM287.77 180.6L287.77 167.99L259.48 148.55L206.37 170.16L190.53 170.16L157.79 141.57L104.82 170.16L59.98 170.16L59.98 184.72L102.51 184.72L159.03 154.21L193.97 184.72L204.58 184.72L260.6 161.92L287.77 180.6ZM102.51 161.01L129.47 146.45L59.98 146.45L59.98 161.01L102.51 161.01ZM287.77 204.31L287.77 191.71L259.48 172.26L206.37 193.87L190.53 193.87L157.79 165.28L104.82 193.87L59.98 193.87L59.98 208.43L102.51 208.43L159.03 177.92L193.97 208.43L204.58 208.43L260.6 185.63L287.77 204.31ZM287.77 228.02L287.77 215.42L259.48 195.97L206.37 217.59L190.53 217.59L157.79 188.99L104.82 217.59L59.98 217.59L59.98 232.15L102.51 232.15L159.03 201.63L193.97 232.15L204.58 232.15L260.6 209.35L287.77 228.02ZM287.77 251.74L287.77 239.13L259.48 219.69L206.37 241.3L190.53 241.3L157.79 212.71L104.82 241.3L59.98 241.3L59.98 255.86L102.51 255.86L159.03 225.35L193.97 255.86L204.58 255.86L260.6 233.06L287.77 251.74ZM157.79 260.13L121.49 279.73L180.22 279.73L157.79 260.13ZM259.48 267.11L228.49 279.73L277.83 279.73L259.48 267.11ZM287.77 275.45L287.77 262.85L259.48 243.4L206.37 265.01L190.53 265.01L157.79 236.42L104.82 265.01L59.98 265.01L59.98 279.57L102.51 279.57L159.03 249.06L193.97 279.57L204.58 279.57L260.6 256.78L287.77 275.45ZM59.98 51.93L59.98 66.15L204.58 66.15L239.51 51.93L59.98 51.93Z" />
		</clipPath>
		<linearGradient id="grd1" gradientUnits="userSpaceOnUse"  x1="297.287" y1="44.052" x2="52.8" y2="285.308">
			<stop offset="0" stop-color="#ffd3ad"  />
			<stop offset="0.08" stop-color="#ffd3ad"  />
			<stop offset="0.169" stop-color="#ffd3ad"  />
			<stop offset="0.871" stop-color="#c59d79"  />
			<stop offset="1" stop-color="#c59d79"  />
		</linearGradient>
	</defs>
	<style>
		tspan { white-space:pre }
		.shp0 { fill: url(#grd1) } 
		.shp1 { fill: #ffffff } 
	</style>
	<g id="g10">
		<g id="g12">
			<g id="g16">
				<g id="Clip-Path: Clip-Path: g18" clip-path="url(#cp1)">
					<g id="Clip-Path: g18">
						<g id="g18">
							<path id="path36" fill-rule="evenodd" class="shp0" d="M296.93 42.78L296.93 288.88L50.83 288.88L50.83 42.78L296.93 42.78ZM287.77 51.93L273.08 51.93L287.77 62.03L287.77 51.93ZM287.77 85.74L287.77 73.14L259.48 53.69L206.37 75.31L59.98 75.31L59.98 89.87L204.58 89.87L260.6 67.07L287.77 85.74ZM287.77 109.46L287.77 96.85L259.48 77.41L206.37 99.02L59.98 99.02L59.98 113.58L204.58 113.58L260.6 90.78L287.77 109.46ZM287.77 133.17L287.77 120.56L259.48 101.12L206.37 122.73L59.98 122.73L59.98 137.29L146.43 137.29L159.03 130.49L166.81 137.29L204.58 137.29L260.6 114.49L287.77 133.17ZM287.77 156.88L287.77 144.28L259.48 124.83L206.37 146.45L177.29 146.45L193.97 161.01L204.58 161.01L260.6 138.21L287.77 156.88ZM287.77 180.6L287.77 167.99L259.48 148.55L206.37 170.16L190.53 170.16L157.79 141.57L104.82 170.16L59.98 170.16L59.98 184.72L102.51 184.72L159.03 154.21L193.97 184.72L204.58 184.72L260.6 161.92L287.77 180.6ZM102.51 161.01L129.47 146.45L59.98 146.45L59.98 161.01L102.51 161.01ZM287.77 204.31L287.77 191.71L259.48 172.26L206.37 193.87L190.53 193.87L157.79 165.28L104.82 193.87L59.98 193.87L59.98 208.43L102.51 208.43L159.03 177.92L193.97 208.43L204.58 208.43L260.6 185.63L287.77 204.31ZM287.77 228.02L287.77 215.42L259.48 195.97L206.37 217.59L190.53 217.59L157.79 188.99L104.82 217.59L59.98 217.59L59.98 232.15L102.51 232.15L159.03 201.63L193.97 232.15L204.58 232.15L260.6 209.35L287.77 228.02ZM287.77 251.74L287.77 239.13L259.48 219.69L206.37 241.3L190.53 241.3L157.79 212.71L104.82 241.3L59.98 241.3L59.98 255.86L102.51 255.86L159.03 225.35L193.97 255.86L204.58 255.86L260.6 233.06L287.77 251.74ZM157.79 260.13L121.49 279.73L180.22 279.73L157.79 260.13ZM259.48 267.11L228.49 279.73L277.83 279.73L259.48 267.11ZM287.77 275.45L287.77 262.85L259.48 243.4L206.37 265.01L190.53 265.01L157.79 236.42L104.82 265.01L59.98 265.01L59.98 279.57L102.51 279.57L159.03 249.06L193.97 279.57L204.58 279.57L260.6 256.78L287.77 275.45ZM59.98 51.93L59.98 66.15L204.58 66.15L239.51 51.93L59.98 51.93Z" />
						</g>
					</g>
				</g>
			</g>
			<path id="path38" fill-rule="evenodd" class="shp1" d="M366.45 97.76C373.14 97.76 378.77 103.4 378.77 110.08L378.77 128.17C378.77 133.68 376.55 137.48 371.04 140.1C376.28 141.28 378.77 145.21 378.77 149.93L378.77 189.51L370.12 189.51L370.12 150.58C370.12 146.13 367.9 144.03 363.57 144.03L355.57 144.03L355.57 189.51L346.92 189.51L346.92 97.76L366.45 97.76ZM362.26 136.03C367.63 136.03 370.12 133.15 370.12 127.65L370.12 110.08C370.12 108.12 368.42 106.41 366.45 106.41L355.57 106.41L355.57 136.03L362.26 136.03Z" />
			<path id="path40" class="shp1" d="M405.77 106.41L405.77 136.03L420.06 136.03L420.06 144.03L405.77 144.03L405.77 180.86L422.03 180.86L422.03 189.51L397.12 189.51L397.12 97.76L422.16 97.76L422.16 106.41L405.77 106.41Z" />
			<path id="path42" fill-rule="evenodd" class="shp1" d="M436.57 189.51L449.03 97.76L464.63 97.76L477.08 189.51L468.43 189.51L464.49 162.51L449.16 162.51L445.36 189.51L436.57 189.51ZM456.5 106.28L450.07 154.52L463.58 154.52L457.15 106.28L456.5 106.28Z" />
			<path id="path44" class="shp1" d="M501.46 180.86L517.71 180.86L517.71 189.51L492.81 189.51L492.81 97.76L501.46 97.76L501.46 180.86Z" />
			<path id="path46" class="shp1" d="M574.85 106.41L574.85 136.03L589.14 136.03L589.14 144.03L574.85 144.03L574.85 180.86L591.11 180.86L591.11 189.51L566.2 189.51L566.2 97.76L591.24 97.76L591.24 106.41L574.85 106.41Z" />
			<path id="path48" class="shp1" d="M616.93 177.19C616.93 179.29 618.63 180.86 620.6 180.86L626.63 180.86C628.59 180.86 630.3 179.29 630.3 177.19L630.3 161.59C630.3 158.32 629.64 155.3 627.54 152.81L612.6 134.59C609.45 130.66 608.27 125.81 608.27 120.7L608.27 110.08C608.27 103.4 613.91 97.76 620.6 97.76L626.63 97.76C633.31 97.76 638.95 103.27 638.95 110.08L638.95 120.31L630.3 120.31L630.3 110.08C630.3 108.12 628.59 106.41 626.63 106.41L620.6 106.41C618.63 106.41 616.93 108.12 616.93 110.08L616.93 120.7C616.93 123.98 617.58 126.86 619.68 129.48L634.49 147.7C637.77 151.63 638.95 156.48 638.95 161.59L638.95 177.19C638.95 184.01 633.31 189.51 626.63 189.51L620.6 189.51C613.78 189.51 608.27 184.01 608.27 177.19L608.27 163.17L616.93 163.17L616.93 177.19Z" />
			<path id="path50" class="shp1" d="M674.6 106.41L674.6 189.51L665.95 189.51L665.95 106.41L655.33 106.41L655.33 97.76L685.21 97.76L685.21 106.41L674.6 106.41Z" />
			<path id="path52" fill-rule="evenodd" class="shp1" d="M695.05 189.51L707.5 97.76L723.09 97.76L735.55 189.51L726.9 189.51L722.96 162.51L707.63 162.51L703.83 189.51L695.05 189.51ZM714.97 106.28L708.55 154.52L722.05 154.52L715.62 106.28L714.97 106.28Z" />
			<path id="path54" class="shp1" d="M764.64 106.41L764.64 189.51L755.99 189.51L755.99 106.41L745.38 106.41L745.38 97.76L775.26 97.76L775.26 106.41L764.64 106.41Z" />
			<path id="path56" class="shp1" d="M800.3 106.41L800.3 136.03L814.58 136.03L814.58 144.03L800.3 144.03L800.3 180.86L816.55 180.86L816.55 189.51L791.64 189.51L791.64 97.76L816.68 97.76L816.68 106.41L800.3 106.41Z" />
			<path id="path58" class="shp1" d="M367.3 242.94L367.3 249.05L347.04 249.05L347.04 218.09L354.03 218.09L354.03 242.94L367.3 242.94Z" />
			<path id="path60" fill-rule="evenodd" class="shp1" d="M418.41 233.57C418.41 242.5 411.25 249.36 401.78 249.36C392.32 249.36 385.16 242.55 385.16 233.57C385.16 224.55 392.32 217.87 401.78 217.87C411.25 217.87 418.41 224.59 418.41 233.57ZM392.32 233.57C392.32 239.01 396.7 243.25 401.87 243.25C407.05 243.25 411.25 239.01 411.25 233.57C411.25 228.13 407.05 223.97 401.87 223.97C396.65 223.97 392.32 228.13 392.32 233.57Z" />
			<path id="path62" fill-rule="evenodd" class="shp1" d="M453.03 240.2L445.91 240.2L445.91 249.05L438.92 249.05L438.92 218.09L452.37 218.09C460.46 218.09 465.06 221.98 465.06 228.84C465.06 233.61 463.03 237.06 459.27 238.83L465.85 249.05L457.94 249.05L453.03 240.2ZM452.37 234.36C456.21 234.36 458.43 232.6 458.43 229.06C458.43 225.61 456.21 223.88 452.37 223.88L445.91 223.88L445.91 234.36L452.37 234.36Z" />
			<path id="path64" class="shp1" d="M493.84 223.88L493.84 230.61L508.79 230.61L508.79 236.4L493.84 236.4L493.84 243.25L510.91 243.25L510.91 249.05L486.85 249.05L486.85 218.09L510.42 218.09L510.42 223.88L493.84 223.88Z" />
			<path id="path66" class="shp1" d="M559.64 249.05L559.64 228.17L551.41 245.91L546.86 245.91L538.63 228.17L538.63 249.05L532.31 249.05L532.31 218.09L540.14 218.09L549.16 237.02L558.13 218.09L565.92 218.09L565.92 249.05L559.64 249.05Z" />
			<path id="path68" class="shp1" d="M615.25 249.05L615.25 218.09L622.24 218.09L622.24 249.05L615.25 249.05Z" />
			<path id="path70" fill-rule="evenodd" class="shp1" d="M658.15 218.09C666.02 218.09 670.53 221.98 670.53 228.84C670.53 236.05 666.02 240.2 658.15 240.2L652 240.2L652 249.05L645.01 249.05L645.01 218.09L658.15 218.09ZM652 234.36L657.79 234.36C661.68 234.36 663.9 232.6 663.9 229.06C663.9 225.61 661.68 223.88 657.79 223.88L652 223.88L652 234.36Z" />
			<path id="path72" class="shp1" d="M713.99 221.14L711.3 226.94C708.02 224.99 704.13 223.75 701.66 223.75C699.31 223.75 697.72 224.59 697.72 226.27C697.72 231.98 714.21 228.79 714.17 239.94C714.17 246 708.91 249.27 702.05 249.27C696.97 249.27 691.88 247.32 688.39 244.36L691.17 238.65C694.36 241.49 698.87 243.3 702.14 243.3C705.02 243.3 706.74 242.24 706.74 240.33C706.74 234.5 690.25 237.9 690.25 226.94C690.25 221.32 695.07 217.78 702.23 217.78C706.56 217.78 710.9 219.11 713.99 221.14Z" />
			<path id="path74" class="shp1" d="M762.37 236.09C762.37 244.27 757.01 249.36 748.48 249.36C739.9 249.36 734.42 244.27 734.42 236.09L734.42 218.09L741.4 218.09L741.4 236.09C741.4 240.56 744.32 243.25 748.48 243.25C752.64 243.25 755.38 240.56 755.38 236.09L755.38 218.09L762.37 218.09L762.37 236.09Z" />
			<path id="path76" class="shp1" d="M811.84 249.05L811.84 228.17L803.62 245.91L799.06 245.91L790.84 228.17L790.84 249.05L784.51 249.05L784.51 218.09L792.34 218.09L801.36 237.02L810.34 218.09L818.12 218.09L818.12 249.05L811.84 249.05Z" />
		</g>
	</g>
</svg>